<?xml version="1.0" encoding="utf-8"?>
<!-- Generator: Adobe Illustrator 19.2.1, SVG Export Plug-In . SVG Version: 6.00 Build 0)  -->
<svg version="1.1" id="Layer_1" xmlns="http://www.w3.org/2000/svg" xmlns:xlink="http://www.w3.org/1999/xlink" x="0px" y="0px"
	 viewBox="0 0 360 360" style="enable-background:new 0 0 360 360;" xml:space="preserve">
<style type="text/css">
	.st0{fill:#273C66;}
	.st1{fill:url(#SVGID_1_);}
	.st2{opacity:0.33;}
	.st3{fill:#546496;}
	.st4{fill:none;stroke:#546496;stroke-width:10;stroke-miterlimit:10;}
	
		.st5{fill:none;stroke:#546496;stroke-width:8;stroke-linecap:round;stroke-miterlimit:10;stroke-dasharray:12.348,23.667,20.58,12.348,12.348,12.348;}
	.st6{fill:#FFFFFF;}
	.st7{fill:none;stroke:#546496;stroke-width:12.5897;stroke-miterlimit:10;}
	.st8{fill:#495E7F;}
	.st9{fill:#D5D5D5;}
	.st10{opacity:0.28;fill:url(#SVGID_4_);}
	.st11{opacity:0.28;fill:url(#SVGID_5_);}
</style>
<rect x="-768.2" y="-154.9" class="st9" width="969" height="156"/>
<g>
	<g>
		<path class="st6" d="M142.3,256.7h-16.5c-1.1,0-2-0.9-2-2V105.1c0-1.1,0.9-2,2-2h16.5c1.1,0,2,0.9,2,2v149.7
			C144.2,255.9,143.4,256.7,142.3,256.7z"/>
		<path class="st6" d="M234.3,256.7h-16.5c-1.1,0-2-0.9-2-2V105.1c0-1.1,0.9-2,2-2h16.5c1.1,0,2,0.9,2,2v149.7
			C236.2,255.9,235.3,256.7,234.3,256.7z"/>
		<path class="st6" d="M188.3,272.6h-16.5c-1.1,0-2-0.9-2-2V89.3c0-1.1,0.9-2,2-2h16.5c1.1,0,2,0.9,2,2v181.4
			C190.2,271.7,189.3,272.6,188.3,272.6z"/>
		<g>
			<path class="st6" d="M248.6,93.6c-12.1,0.4-24.1-3.6-32.2-11.5c-5.8-5.6-8.4-12.8-7.5-20.2c0.5-4.4,2.3-8.5,5.2-12.2
				c3.7-4.7,10.9-4.3,13.9,0.8l0,0c1.7,3,1.5,6.7-0.7,9.4c-1,1.3-1.6,2.6-1.8,4c-0.3,2.7,1.2,4.9,2.6,6.2c7.9,7.8,23.7,9,34.5,2.7
				c6.6-3.9,10.8-9.4,11.5-15.1c0.6-4.9-1.3-9.6-5.4-13.7c-4.7-4.6-11.2-8.1-18.8-10.1c-17.1-4.4-35.3,0.3-48.7,12.8l-31,28.6
				c-17.6,16.3-41.6,22.5-64.3,16.7c-10.4-2.7-19.5-7.6-26.3-14.3C71.7,69.9,68,60.1,69.3,50c1.3-11,8.5-21,19.7-27.5
				c17.3-10.1,41.3-7.9,54.6,5.2c5.8,5.6,8.4,12.8,7.5,20.2c-0.5,4.4-2.3,8.5-5.2,12.2c-3.7,4.7-10.9,4.3-13.9-0.8v0
				c-1.7-3-1.5-6.7,0.7-9.4c1-1.3,1.6-2.6,1.8-4c0.3-2.7-1.2-4.9-2.6-6.2c-7.9-7.8-23.7-9-34.5-2.7c-6.6,3.9-10.8,9.4-11.5,15.1
				c-0.6,4.9,1.3,9.6,5.4,13.7c4.7,4.6,11.2,8.1,18.8,10.1c17.1,4.4,35.3-0.3,48.7-12.8l31-28.6c17.6-16.3,41.6-22.5,64.3-16.7
				c10.4,2.7,19.5,7.6,26.3,14.3c7.9,7.7,11.6,17.6,10.4,27.7c-1.3,11-8.5,21-19.7,27.5C264.3,91.3,256.4,93.3,248.6,93.6z"/>
		</g>
		<g>
			<path class="st6" d="M111.4,343.9c12.1,0.4,24.1-3.6,32.2-11.5c5.8-5.6,8.4-12.8,7.5-20.2c-0.5-4.4-2.3-8.5-5.2-12.2
				c-3.7-4.7-10.9-4.3-13.9,0.8l0,0c-1.7,3-1.5,6.7,0.7,9.4c1,1.3,1.6,2.6,1.8,4c0.3,2.7-1.2,4.9-2.6,6.2c-7.9,7.8-23.7,9-34.5,2.7
				c-6.6-3.9-10.8-9.4-11.5-15.1c-0.6-4.9,1.3-9.6,5.4-13.7c4.7-4.6,11.2-8.1,18.8-10.1c17.1-4.4,35.3,0.3,48.7,12.8l31,28.6
				c17.6,16.3,41.6,22.5,64.3,16.7c10.4-2.7,19.5-7.6,26.3-14.3c7.9-7.7,11.6-17.6,10.4-27.7c-1.3-11-8.5-21-19.7-27.5
				c-17.3-10.1-41.3-7.9-54.6,5.2c-5.8,5.6-8.4,12.8-7.5,20.2c0.5,4.4,2.3,8.5,5.2,12.2c3.7,4.7,10.9,4.3,13.9-0.8l0,0
				c1.7-3,1.5-6.7-0.7-9.4c-1-1.3-1.6-2.6-1.8-4c-0.3-2.7,1.2-4.9,2.6-6.2c7.9-7.8,23.7-9,34.5-2.7c6.6,3.9,10.8,9.4,11.5,15.1
				c0.6,4.9-1.3,9.6-5.4,13.7c-4.7,4.6-11.2,8.1-18.8,10.1c-17.1,4.4-35.3-0.3-48.7-12.8l-31-28.6c-17.6-16.3-41.6-22.5-64.3-16.7
				c-10.4,2.7-19.5,7.6-26.3,14.3c-7.9,7.7-11.6,17.6-10.4,27.7c1.3,11,8.5,21,19.7,27.5C95.7,341.6,103.6,343.6,111.4,343.9z"/>
		</g>
	</g>
</g>
</svg>
