<?xml version="1.0" encoding="utf-8"?>
<!-- Generator: Adobe Illustrator 22.0.1, SVG Export Plug-In . SVG Version: 6.00 Build 0)  -->
<svg version="1.1" id="Layer_1" xmlns="http://www.w3.org/2000/svg" xmlns:xlink="http://www.w3.org/1999/xlink" x="0px" y="0px"
	 viewBox="0 0 250 50" style="enable-background:new 0 0 250 50;" xml:space="preserve">
<style type="text/css">
	.st0{fill:#FFFFFF;}
</style>
<g>
	<g>
		<g>
			<path class="st0" d="M46.3,11.3l-0.7,1.6c-1.3-0.9-2.9-1.3-4.1-1.3c-1.9,0-3.2,0.7-3.2,2c0,3.8,8.4,1.8,8.3,7.2
				c0,2.5-2.2,4.1-5.4,4.1c-2.2,0-4.3-0.9-5.7-2.3l0.8-1.5c1.4,1.3,3.3,2.1,4.9,2.1c2.1,0,3.5-0.9,3.5-2.3c0-3.9-8.3-1.8-8.3-7.2
				c0-2.3,2.1-3.8,5.1-3.8C43.3,9.9,45.1,10.5,46.3,11.3z"/>
			<path class="st0" d="M65.4,17.4c0,4.2-3.4,7.5-7.8,7.5c-4.4,0-7.8-3.3-7.8-7.5c0-4.2,3.4-7.5,7.8-7.5C62,9.9,65.4,13.2,65.4,17.4
				z M51.6,17.4c0,3.3,2.8,5.9,6.1,5.9c3.3,0,6-2.6,6-5.9c0-3.3-2.7-5.9-6-5.9C54.3,11.5,51.6,14.1,51.6,17.4z"/>
			<path class="st0" d="M77.8,23.2v1.6h-8.2V10h1.7v13.2H77.8z"/>
			<path class="st0" d="M83.1,21.1l-1.7,3.8h-1.8L86.3,10H88l6.6,14.9h-1.8l-1.7-3.8H83.1z M87.1,11.9l-3.3,7.5h6.7L87.1,11.9z"/>
			<path class="st0" d="M104.7,20.1c-0.3,0-0.7,0-1,0h-3.9v4.7h-1.7V10h5.6c3.7,0,5.9,1.8,5.9,5c0,2.5-1.2,4.1-3.3,4.8l3.5,5.1h-1.9
				L104.7,20.1z M103.7,18.5c2.7,0,4.2-1.2,4.2-3.5c0-2.3-1.5-3.4-4.2-3.4h-3.9v6.9H103.7z"/>
		</g>
	</g>
	<g>
		<g>
			<path class="st0" d="M113.4,24.8V10h1.7v14.9H113.4z"/>
			<path class="st0" d="M128.1,24.8l-8.9-11.9v11.9h-1.7V10h1.8l8.9,12V10h1.7v14.9H128.1z"/>
			<path class="st0" d="M142.8,24.8l-8.9-11.9v11.9h-1.7V10h1.8l8.9,12V10h1.7v14.9H142.8z"/>
			<path class="st0" d="M161.1,17.4c0,4.2-3.4,7.5-7.8,7.5c-4.4,0-7.8-3.3-7.8-7.5c0-4.2,3.4-7.5,7.8-7.5
				C157.7,9.9,161.1,13.2,161.1,17.4z M147.3,17.4c0,3.3,2.8,5.9,6.1,5.9c3.3,0,6-2.6,6-5.9c0-3.3-2.7-5.9-6-5.9
				C150.1,11.5,147.3,14.1,147.3,17.4z"/>
			<path class="st0" d="M165.8,24.8l-6-14.9h1.8l5.1,12.9l5.1-12.9h1.8l-6.1,14.9H165.8z"/>
			<path class="st0" d="M174.2,21.1l-1.7,3.8h-1.8l6.7-14.9h1.8l6.6,14.9H184l-1.7-3.8H174.2z M178.3,11.9l-3.3,7.5h6.7L178.3,11.9z
				"/>
			<path class="st0" d="M189.2,11.6v13.2h-1.7V11.6h-4.8V10h11.4v1.6H189.2z"/>
			<path class="st0" d="M194.4,24.8V10h1.7v14.9H194.4z"/>
			<path class="st0" d="M212.6,17.4c0,4.2-3.4,7.5-7.8,7.5c-4.3,0-7.8-3.3-7.8-7.5c0-4.2,3.4-7.5,7.8-7.5
				C209.2,9.9,212.6,13.2,212.6,17.4z M198.8,17.4c0,3.3,2.8,5.9,6.1,5.9c3.3,0,6-2.6,6-5.9c0-3.3-2.7-5.9-6-5.9
				C201.6,11.5,198.8,14.1,198.8,17.4z"/>
			<path class="st0" d="M224.2,24.8l-8.9-11.9v11.9h-1.7V10h1.8l8.9,12V10h1.7v14.9H224.2z"/>
			<path class="st0" d="M237.5,11.3l-0.7,1.6c-1.3-0.9-2.9-1.3-4.1-1.3c-1.9,0-3.2,0.7-3.2,2c0,3.8,8.4,1.8,8.3,7.2
				c0,2.5-2.2,4.1-5.4,4.1c-2.2,0-4.3-0.9-5.7-2.3l0.8-1.5c1.4,1.3,3.3,2.1,4.9,2.1c2.1,0,3.5-0.9,3.5-2.3c0-3.9-8.3-1.8-8.3-7.2
				c0-2.3,2.1-3.8,5.1-3.8C234.5,9.9,236.3,10.5,237.5,11.3z"/>
		</g>
	</g>
	<g>
		<g>
			<path class="st0" d="M245.7,13.4c0,1.9-1.6,3.6-3.5,3.6c-2,0-3.5-1.6-3.5-3.5c0-1.9,1.5-3.6,3.5-3.6
				C244.2,9.9,245.7,11.5,245.7,13.4z M245.1,13.4c0-1.6-1.3-2.9-2.9-2.9c-1.7,0-2.9,1.3-2.9,2.9c0,1.6,1.3,2.9,2.9,2.9
				C243.8,16.4,245.1,15,245.1,13.4z M243,13.9l0.8,1.2h-0.7l-0.7-1.1h-0.2h-0.8v1.1h-0.6v-3.5h1.4c0.9,0,1.4,0.4,1.4,1.2
				C243.7,13.3,243.4,13.7,243,13.9z M242.3,13.5c0.5,0,0.9-0.3,0.9-0.7c0-0.5-0.3-0.7-0.9-0.7h-0.8v1.5H242.3z"/>
		</g>
	</g>
	<rect x="35.6" y="28.3" class="st0" width="74.8" height="1.2"/>
	<rect x="113.4" y="28.3" class="st0" width="125.2" height="1.2"/>
	<rect x="7.7" y="18.1" class="st0" width="16.7" height="23.9"/>
	<rect x="25" y="18.1" class="st0" width="6.4" height="23.9"/>
	<rect x="7.7" y="10.2" class="st0" width="16.7" height="7.3"/>
	<rect x="25" y="10.2" class="st0" width="6.4" height="7.3"/>
	<g>
		<path class="st0" d="M37.5,39.8l-1,2.2h-1l3.8-8.6h1l3.8,8.6h-1.1l-1-2.2H37.5z M39.9,34.5L38,38.8h3.8L39.9,34.5z"/>
		<path class="st0" d="M48.8,39.2c-0.2,0-0.4,0-0.6,0h-2.3v2.7h-1v-8.6h3.3c2.1,0,3.4,1.1,3.4,2.9c0,1.4-0.7,2.4-1.9,2.8l2,2.9h-1.1
			L48.8,39.2z M48.2,38.3c1.6,0,2.4-0.7,2.4-2c0-1.3-0.9-2-2.4-2h-2.3v4H48.2z"/>
		<path class="st0" d="M60,34.6l-0.6,0.7c-0.7-0.7-1.6-1.1-2.5-1.1c-1.9,0-3.5,1.5-3.5,3.4c0,1.9,1.6,3.4,3.5,3.4
			c0.9,0,1.9-0.4,2.5-1l0.6,0.7c-0.8,0.8-2,1.3-3.2,1.3c-2.5,0-4.4-1.9-4.4-4.3c0-2.4,2-4.3,4.5-4.3C58,33.4,59.2,33.8,60,34.6z"/>
		<path class="st0" d="M67.3,41.9v-3.8h-5.2v3.8h-1v-8.6h1v3.9h5.2v-3.9h1v8.6H67.3z"/>
		<path class="st0" d="M70.2,41.9v-8.6h1v8.6H70.2z"/>
		<path class="st0" d="M75.8,34.3v7.6h-1v-7.6H72v-0.9h6.6v0.9H75.8z"/>
		<path class="st0" d="M80.4,34.3v2.8h4.3v0.9h-4.3V41h5v0.9h-6v-8.6h5.8v0.9H80.4z"/>
		<path class="st0" d="M93.5,34.6l-0.6,0.7c-0.7-0.7-1.6-1.1-2.5-1.1c-1.9,0-3.5,1.5-3.5,3.4c0,1.9,1.6,3.4,3.5,3.4
			c0.9,0,1.9-0.4,2.5-1l0.6,0.7c-0.8,0.8-2,1.3-3.2,1.3c-2.5,0-4.4-1.9-4.4-4.3c0-2.4,2-4.3,4.5-4.3C91.6,33.4,92.7,33.8,93.5,34.6z
			"/>
		<path class="st0" d="M97.3,34.3v7.6h-1v-7.6h-2.8v-0.9h6.6v0.9H97.3z"/>
		<path class="st0" d="M107.9,38.4c0,2.2-1.3,3.6-3.6,3.6c-2.2,0-3.6-1.3-3.6-3.6v-5h1v5c0,1.7,1,2.6,2.6,2.6c1.6,0,2.6-1,2.6-2.6
			v-5h1V38.4z"/>
		<path class="st0" d="M113.5,39.2c-0.2,0-0.4,0-0.6,0h-2.3v2.7h-1v-8.6h3.3c2.1,0,3.4,1.1,3.4,2.9c0,1.4-0.7,2.4-1.9,2.8l2,2.9
			h-1.1L113.5,39.2z M112.9,38.3c1.6,0,2.4-0.7,2.4-2c0-1.3-0.9-2-2.4-2h-2.3v4H112.9z"/>
		<path class="st0" d="M118.6,39.8l-1,2.2h-1l3.8-8.6h1l3.8,8.6h-1.1l-1-2.2H118.6z M120.9,34.5l-1.9,4.3h3.8L120.9,34.5z"/>
		<path class="st0" d="M130.8,41v0.9H126v-8.6h1V41H130.8z"/>
		<path class="st0" d="M141.3,37.8v3.1c-0.8,0.7-2,1.1-3.2,1.1c-2.5,0-4.5-1.9-4.5-4.3c0-2.4,2-4.3,4.5-4.3c1.2,0,2.3,0.5,3.2,1.2
			l-0.6,0.7c-0.7-0.6-1.6-1-2.6-1c-2,0-3.5,1.5-3.5,3.4c0,1.9,1.6,3.4,3.5,3.4c0.8,0,1.6-0.3,2.3-0.7v-2.6H141.3z"/>
		<path class="st0" d="M147.8,41v0.9h-4.7v-8.6h1V41H147.8z"/>
		<path class="st0" d="M149.6,39.8l-1,2.2h-1l3.8-8.6h1l3.8,8.6h-1.1l-1-2.2H149.6z M151.9,34.5l-1.9,4.3h3.8L151.9,34.5z"/>
		<path class="st0" d="M157.5,41h5.7l0,0.9h-7v-0.8l5.7-6.8h-5.5v-0.9h6.8v0.8L157.5,41z"/>
		<path class="st0" d="M164.5,41.9v-8.6h1v8.6H164.5z"/>
		<path class="st0" d="M173.6,41.9l-5.1-6.9v6.9h-1v-8.6h1l5.1,6.9v-6.9h1v8.6H173.6z"/>
		<path class="st0" d="M183.4,37.8v3.1c-0.8,0.7-2,1.1-3.2,1.1c-2.5,0-4.5-1.9-4.5-4.3c0-2.4,2-4.3,4.5-4.3c1.2,0,2.3,0.5,3.2,1.2
			l-0.6,0.7c-0.7-0.6-1.6-1-2.6-1c-2,0-3.5,1.5-3.5,3.4c0,1.9,1.6,3.4,3.5,3.4c0.8,0,1.6-0.3,2.2-0.7v-2.6H183.4z"/>
		<path class="st0" d="M193.1,34.1l-0.4,0.9c-0.8-0.5-1.7-0.7-2.4-0.7c-1.1,0-1.8,0.4-1.8,1.1c0,2.2,4.8,1.1,4.8,4.2
			c0,1.4-1.3,2.3-3.1,2.3c-1.2,0-2.5-0.5-3.3-1.3l0.4-0.9c0.8,0.8,1.9,1.2,2.8,1.2c1.2,0,2-0.5,2-1.3c0-2.2-4.8-1.1-4.8-4.1
			c0-1.3,1.2-2.2,3-2.2C191.4,33.4,192.4,33.7,193.1,34.1z"/>
		<path class="st0" d="M197.8,41.9h-1V39l-3.3-5.7h1l2.8,4.5l2.7-4.5h1l-3.3,5.6V41.9z"/>
		<path class="st0" d="M207,34.1l-0.4,0.9c-0.8-0.5-1.7-0.7-2.4-0.7c-1.1,0-1.8,0.4-1.8,1.1c0,2.2,4.8,1.1,4.8,4.2
			c0,1.4-1.3,2.3-3.1,2.3c-1.2,0-2.5-0.5-3.3-1.3l0.4-0.9c0.8,0.8,1.9,1.2,2.8,1.2c1.2,0,2-0.5,2-1.3c0-2.2-4.8-1.1-4.8-4.1
			c0-1.3,1.2-2.2,3-2.2C205.3,33.4,206.3,33.7,207,34.1z"/>
		<path class="st0" d="M211.2,34.3v7.6h-1v-7.6h-2.8v-0.9h6.6v0.9H211.2z"/>
		<path class="st0" d="M215.8,34.3v2.8h4.3v0.9h-4.3V41h5v0.9h-6v-8.6h5.8v0.9H215.8z"/>
		<path class="st0" d="M229.9,41.9l0-7.1l-3.1,6.1h-0.6l-3.1-6.1v7.1h-0.9v-8.6h1.2l3.1,6.2l3.1-6.2h1.2v8.6H229.9z"/>
		<path class="st0" d="M238.1,34.1l-0.4,0.9c-0.8-0.5-1.7-0.7-2.4-0.7c-1.1,0-1.8,0.4-1.8,1.1c0,2.2,4.8,1.1,4.8,4.2
			c0,1.4-1.3,2.3-3.1,2.3c-1.2,0-2.5-0.5-3.3-1.3l0.4-0.9c0.8,0.8,1.9,1.2,2.8,1.2c1.2,0,2-0.5,2-1.3c0-2.2-4.8-1.1-4.8-4.1
			c0-1.3,1.2-2.2,3-2.2C236.3,33.4,237.4,33.7,238.1,34.1z"/>
	</g>
</g>
</svg>
