<?xml version="1.0" encoding="utf-8"?>
<!-- Generator: Adobe Illustrator 16.0.0, SVG Export Plug-In . SVG Version: 6.00 Build 0)  -->
<!DOCTYPE svg PUBLIC "-//W3C//DTD SVG 1.1//EN" "http://www.w3.org/Graphics/SVG/1.1/DTD/svg11.dtd">
<svg version="1.1" id="Layer_1" xmlns="http://www.w3.org/2000/svg" xmlns:xlink="http://www.w3.org/1999/xlink" x="0px" y="0px"
	 width="300px" height="300px" viewBox="227 1.25 300 300" enable-background="new 227 1.25 300 300" xml:space="preserve">
<g>
	<g>
		<path fill="#FFFFFF" d="M344.583,213.916h-13.75c-0.917,0-1.667-0.75-1.667-1.666V87.583c0-0.917,0.75-1.667,1.667-1.667h13.75
			c0.917,0,1.667,0.75,1.667,1.667v124.75C346.167,213.25,345.5,213.916,344.583,213.916z"/>
		<path fill="#FFFFFF" d="M421.25,213.916H407.5c-0.917,0-1.667-0.75-1.667-1.666V87.583c0-0.917,0.75-1.667,1.667-1.667h13.75
			c0.917,0,1.667,0.75,1.667,1.667v124.75C422.833,213.25,422.083,213.916,421.25,213.916z"/>
		<path fill="#FFFFFF" d="M382.916,227.166h-13.75c-0.917,0-1.667-0.75-1.667-1.666V74.417c0-0.917,0.75-1.667,1.667-1.667h13.75
			c0.918,0,1.668,0.75,1.668,1.667v151.167C384.5,226.416,383.75,227.166,382.916,227.166z"/>
		<g>
			<path fill="#FFFFFF" d="M433.167,78c-10.084,0.333-20.084-3-26.834-9.583c-4.833-4.667-7-10.667-6.25-16.833
				c0.417-3.667,1.917-7.083,4.334-10.167C407.5,37.5,413.5,37.833,416,42.083l0,0c1.417,2.5,1.25,5.583-0.583,7.833
				c-0.834,1.083-1.334,2.167-1.5,3.333c-0.25,2.25,1,4.083,2.166,5.167c6.584,6.5,19.75,7.5,28.75,2.25
				c5.5-3.25,9-7.833,9.584-12.583c0.5-4.083-1.084-8-4.5-11.417c-3.917-3.833-9.334-6.75-15.667-8.417
				c-14.25-3.667-29.417,0.25-40.584,10.667L367.833,62.75c-14.667,13.583-34.667,18.75-53.583,13.917
				c-8.667-2.25-16.25-6.333-21.917-11.917c-6.583-6.5-9.667-14.667-8.583-23.083c1.083-9.167,7.083-17.5,16.417-22.917
				c14.417-8.417,34.417-6.583,45.5,4.333c4.833,4.667,7,10.667,6.25,16.833C351.5,43.583,350,47,347.583,50.083
				C344.5,54,338.5,53.667,336,49.417l0,0c-1.417-2.5-1.25-5.583,0.583-7.833c0.833-1.083,1.333-2.167,1.5-3.333
				c0.25-2.25-1-4.083-2.167-5.167c-6.583-6.5-19.75-7.5-28.75-2.25c-5.5,3.25-9,7.833-9.583,12.583c-0.5,4.083,1.083,8,4.5,11.417
				c3.917,3.833,9.333,6.75,15.667,8.417C332,66.917,347.167,63,358.333,52.583l25.833-23.833
				C398.833,15.167,418.833,10,437.75,14.833c8.667,2.25,16.25,6.333,21.917,11.917c6.583,6.417,9.666,14.667,8.666,23.083
				c-1.083,9.167-7.083,17.5-16.416,22.917C446.25,76.083,439.667,77.75,433.167,78z"/>
		</g>
		<g>
			<path fill="#FFFFFF" d="M318.833,286.584c10.083,0.332,20.083-3,26.833-9.584c4.833-4.666,7-10.666,6.25-16.834
				C351.5,256.5,350,253.084,347.583,250c-3.083-3.916-9.083-3.584-11.583,0.666l0,0c-1.417,2.5-1.25,5.584,0.583,7.834
				c0.833,1.084,1.333,2.166,1.5,3.334c0.25,2.25-1,4.082-2.167,5.166c-6.583,6.5-19.75,7.5-28.75,2.25
				c-5.5-3.25-9-7.834-9.583-12.584c-0.5-4.082,1.083-8,4.5-11.416c3.917-3.834,9.333-6.75,15.667-8.416
				c14.25-3.668,29.417,0.25,40.583,10.666l25.833,23.834c14.667,13.582,34.667,18.75,53.584,13.916
				c8.667-2.25,16.25-6.334,21.917-11.916c6.583-6.418,9.666-14.668,8.666-23.084c-1.083-9.166-7.083-17.5-16.416-22.916
				c-14.417-8.418-34.417-6.584-45.5,4.332c-4.834,4.668-7,10.668-6.25,16.834c0.416,3.666,1.916,7.084,4.333,10.166
				c3.083,3.918,9.083,3.584,11.583-0.666l0,0c1.417-2.5,1.25-5.584-0.583-7.834c-0.833-1.082-1.333-2.166-1.5-3.332
				c-0.25-2.25,1-4.084,2.167-5.168c6.583-6.5,19.75-7.5,28.75-2.25c5.5,3.25,9,7.834,9.583,12.584c0.5,4.084-1.083,8-4.5,11.416
				c-3.917,3.834-9.333,6.75-15.667,8.418c-14.25,3.666-29.416-0.25-40.583-10.668l-25.833-23.832
				c-14.667-13.584-34.667-18.75-53.583-13.918c-8.667,2.25-16.25,6.334-21.917,11.918c-6.583,6.416-9.667,14.666-8.667,23.082
				c1.083,9.168,7.083,17.5,16.417,22.918C305.75,284.666,312.333,286.334,318.833,286.584z"/>
		</g>
	</g>
</g>
</svg>
